<svg xmlns="http://www.w3.org/2000/svg" xmlns:xlink="http://www.w3.org/1999/xlink" width="48" height="48" viewBox="0 0 48 48">
  <defs>
    <clipPath id="clip-icon-sidevar_1">
      <rect width="48" height="48"/>
    </clipPath>
  </defs>
  <g id="icon-sidevar_1" data-name="icon-sidevar – 1" clip-path="url(#clip-icon-sidevar_1)">
    <rect width="48" height="48" fill="#fff"/>
    <path id="합치기_1" data-name="합치기 1" d="M287.8,5H275a3,3,0,1,1,0-6h12.8A6,6,0,0,1,298.2-1H301a3,3,0,1,1,0,6h-2.8A6,6,0,0,1,287.8,5Z" transform="translate(-264 14)" fill="#333"/>
    <path id="합치기_2" data-name="합치기 2" d="M277.8,5H275a3,3,0,1,1,0-6h2.8A6,6,0,0,1,288.2-1H301a3,3,0,1,1,0,6H288.2A6,6,0,0,1,277.8,5Z" transform="translate(-264 30)" fill="#333"/>
  </g>
</svg>
